BBC Horizon 2011/2012 S48E03 The Nine Months That Made You. 720p x264 aac mp4 subtitles [aularon]

- - -
Synopsis
- - -
Horizon explores the secrets of what makes a long, healthy and happy life. It turns out that a time you can't remember - the nine months you spend in the womb - could have more lasting effects on you today than your lifestyle or genes. It is one of the most powerful and provocative new ideas in human science, and it was pioneered by a British scientist, Professor David Barker. His theory has inspired a field of study that is revealing how our time in the womb could affect your health, personality, and even the lives of your children.


- - -
URL
- - - 
http://www.bbc.co.uk/programmes/b013ywz4

- - -
Technical Details
- - -
General
Complete name                    : BBC.Horizon.2011.2012.S48E03.The.Nine.Months.That.Made.You/Horizon_-_2011-2012_3._The_Nine_Months_That_Made_You_b013ywz4_default.mp4
Format                           : MPEG-4
Format profile                   : Base Media
Codec ID                         : isom
File size                        : 1.07 GiB
Duration                         : 59mn 17s
Overall bit rate                 : 2 573 Kbps
Movie name                       : Horizon: 2011-2012: The Nine Months That Made You
Album                            : Horizon
Track name/Position              : 3
Track name/Total                 : 0
Performer                        : Horizon
Genre                            : Factual,Science & Nature
Recorded date                    : 2011-08-22T21:00:00+01:00
Writing application              : Lavf53.6.0
Cover                            : Yes
Comment                          : Recorded using get_iplayer, by Aularon.
rtng                             : 2
stik                             : 1
desc                             : Series exploring topical scientific issues. The programme examines how the nine months you spend in the womb could have more lasting effects than lifestyle or genes.
tvnn                             : BBC HD
tvsh                             : Horizon
tven                             : b013ywz4
catg                             : Factual,Science & Nature
tves                             : 3

Video
ID                               : 1
Format                           : AVC
Format/Info                      : Advanced Video Codec
Format profile                   : High@L4.1
Format settings, CABAC           : Yes
Format settings, ReFrames        : 6 frames
Codec ID                         : avc1
Codec ID/Info                    : Advanced Video Coding
Duration                         : 59mn 17s
Bit rate mode                    : Variable
Bit rate                         : 2 472 Kbps
Maximum bit rate                 : 3 500 Kbps
Width                            : 1 280 pixels
Height                           : 720 pixels
Display aspect ratio             : 16:9
Frame rate mode                  : Constant
Frame rate                       : 25.000 fps
Standard                         : PAL
Color space                      : YUV
Chroma subsampling               : 4:2:0
Bit depth                        : 8 bits
Scan type                        : Progressive
Bits/(Pixel*Frame)               : 0.107
Stream size                      : 1.02 GiB (96%)

Audio
ID                               : 2
Format                           : AAC
Format/Info                      : Advanced Audio Codec
Format profile                   : HE-AAC / LC
Codec ID                         : 40
Duration                         : 59mn 17s
Bit rate mode                    : Constant
Bit rate                         : 96.0 Kbps
Channel(s)                       : 2 channels
Channel positions                : Front: L R
Sampling rate                    : 48.0 KHz / 24.0 KHz
Compression mode                 : Lossy
Stream size                      : 40.2 MiB (4%)
